<?xml version="1.0" encoding="UTF-8"?>
<svg width="876px" height="221px" viewBox="0 0 876 221" version="1.1" xmlns="http://www.w3.org/2000/svg" xmlns:xlink="http://www.w3.org/1999/xlink">
    <!-- Generator: Sketch 51.3 (57544) - http://www.bohemiancoding.com/sketch -->
    <title>logo-music-keyboard</title>
    <desc>Created with Sketch.</desc>
    <defs></defs>
    <g id="Symbols" stroke="none" stroke-width="1" fill="none" fill-rule="evenodd">
        <g id="logo-music-keyboard-copy-2" transform="translate(0.000000, -7.000000)" fill="#084CFE">
            <g id="logo-music-keyboard" transform="translate(0.000000, 7.000000)">
                <path d="M277.248,0.68 L14.592,0.68 C6.54916535,0.68 0,7.26609674 0,15.3542857 L0,191.445714 C0,199.533903 6.54916535,206.12 14.592,206.12 L277.248,206.12 C285.290835,206.12 291.84,199.533903 291.84,191.445714 L291.84,15.3542857 C291.84,7.26609674 285.290835,0.68 277.248,0.68 Z M145.92,32.9749831 C145.92,31.3573453 147.241323,30.0285714 148.84989,30.0285714 L172.17411,30.0285714 C173.782677,30.0285714 175.104,31.3573453 175.104,32.9749831 L175.104,56.4307312 C175.104,58.048369 173.782677,59.3771429 172.17411,59.3771429 L148.84989,59.3771429 C147.241323,59.3771429 145.92,58.048369 145.92,56.4307312 L145.92,32.9749831 Z M119.66589,88.7257143 L142.99011,88.7257143 C144.598677,88.7257143 145.92,90.0544882 145.92,91.672126 L145.92,115.127874 C145.92,116.745512 144.598677,118.074286 142.99011,118.074286 L119.66589,118.074286 C118.057323,118.074286 116.736,116.745512 116.736,115.127874 L116.736,91.672126 C116.736,90.0544882 118.057323,88.7257143 119.66589,88.7257143 Z M87.552,32.9749831 C87.552,31.3573453 88.8733228,30.0285714 90.4818898,30.0285714 L113.80611,30.0285714 C115.414677,30.0285714 116.736,31.3573453 116.736,32.9749831 L116.736,56.4307312 C116.736,58.048369 115.414677,59.3771429 113.80611,59.3771429 L90.4818898,59.3771429 C88.8733228,59.3771429 87.552,58.048369 87.552,56.4307312 L87.552,32.9749831 Z M29.184,32.9749831 C29.184,31.3573453 30.5053228,30.0285714 32.1138898,30.0285714 L55.4381102,30.0285714 C57.0466772,30.0285714 58.368,31.3573453 58.368,32.9749831 L58.368,56.4307312 C58.368,58.048369 57.0466772,59.3771429 55.4381102,59.3771429 L32.1138898,59.3771429 C30.5053228,59.3771429 29.184,58.048369 29.184,56.4307312 L29.184,32.9749831 Z M58.368,173.825017 C58.368,175.442655 57.0466772,176.771429 55.4381102,176.771429 L32.1138898,176.771429 C30.5053228,176.771429 29.184,175.442655 29.184,173.825017 L29.184,150.369269 C29.184,148.751631 30.5053228,147.422857 32.1138898,147.422857 L55.4381102,147.422857 C57.0466772,147.422857 58.368,148.751631 58.368,150.369269 L58.368,173.825017 Z M84.6221102,118.074286 L32.1138898,118.074286 C30.5053228,118.074286 29.184,116.745512 29.184,115.127874 L29.184,91.672126 C29.184,90.0544882 30.5053228,88.7257143 32.1138898,88.7257143 L84.6221102,88.7257143 C86.2306772,88.7257143 87.552,90.0544882 87.552,91.672126 L87.552,115.127874 C87.552,116.745512 86.2306772,118.074286 84.6221102,118.074286 Z M204.288,173.825017 C204.288,175.442655 202.966677,176.771429 201.35811,176.771429 L90.4818898,176.771429 C88.8733228,176.771429 87.552,175.442655 87.552,173.825017 L87.552,150.369269 C87.552,148.751631 88.8733228,147.422857 90.4818898,147.422857 L201.35811,147.422857 C202.966677,147.422857 204.288,148.751631 204.288,150.369269 L204.288,173.825017 Z M204.288,115.127874 C204.288,116.745512 202.966677,118.074286 201.35811,118.074286 L178.03389,118.074286 C176.425323,118.074286 175.104,116.745512 175.104,115.127874 L175.104,91.672126 C175.104,90.0544882 176.425323,88.7257143 178.03389,88.7257143 L201.35811,88.7257143 C202.966677,88.7257143 204.288,90.0544882 204.288,91.672126 L204.288,115.127874 Z M207.21789,59.3771429 C205.609323,59.3771429 204.288,58.048369 204.288,56.4307312 L204.288,32.9749831 C204.288,31.3573453 205.609323,30.0285714 207.21789,30.0285714 L248.064,30.0285714 C256.106835,30.0285714 262.656,36.6146682 262.656,44.7028571 L262.656,115.127874 C262.656,116.745512 261.334677,118.074286 259.72611,118.074286 L236.40189,118.074286 C234.793323,118.074286 233.472,116.745512 233.472,115.127874 L233.472,59.3771429 L207.21789,59.3771429 Z M262.656,173.825017 C262.656,175.442655 261.334677,176.771429 259.72611,176.771429 L236.40189,176.771429 C234.793323,176.771429 233.472,175.442655 233.472,173.825017 L233.472,150.369269 C233.472,148.751631 234.793323,147.422857 236.40189,147.422857 L259.72611,147.422857 C261.334677,147.422857 262.656,148.751631 262.656,150.369269 L262.656,173.825017 Z" id="Icon" fill-rule="nonzero"></path>
                <path d="M438.11328,83.592 L438.555648,28.185408 L438.223872,28.185408 L417.874944,83.592 L404.603904,83.592 L384.807936,28.185408 L384.47616,28.185408 L384.918528,83.592 L367.113216,83.592 L367.113216,5.292864 L393.987072,5.292864 L411.792384,55.501632 L412.234752,55.501632 L429.26592,5.292864 L456.582144,5.292864 L456.582144,83.592 L438.11328,83.592 Z M508.007424,83.592 L508.007424,75.961152 L507.78624,75.961152 C507.122685,77.2145343 506.256389,78.3941705 505.187328,79.500096 C504.118267,80.6060215 502.864903,81.5644759 501.4272,82.375488 C499.989497,83.1865001 498.404361,83.8500454 496.671744,84.366144 C494.939127,84.8822426 493.114378,85.140288 491.19744,85.140288 C487.511022,85.140288 484.396045,84.4767426 481.852416,83.149632 C479.308787,81.8225214 477.244424,80.1083625 475.659264,78.007104 C474.074104,75.9058455 472.931332,73.5097095 472.230912,70.818624 C471.530492,68.1275385 471.180288,65.381198 471.180288,62.57952 L471.180288,28.517184 L489.427968,28.517184 L489.427968,58.377024 C489.427968,59.9253197 489.538559,61.399865 489.759744,62.800704 C489.980929,64.201543 490.404861,65.4549065 491.031552,66.560832 C491.658243,67.6667575 492.487675,68.5330529 493.519872,69.159744 C494.552069,69.7864351 495.916024,70.099776 497.611776,70.099776 C500.782096,70.099776 503.196664,68.9201398 504.855552,66.560832 C506.51444,64.2015242 507.343872,61.4367519 507.343872,58.266432 L507.343872,28.517184 L525.48096,28.517184 L525.48096,83.592 L508.007424,83.592 Z M572.040192,44.774208 C570.565625,43.373369 568.833034,42.1937328 566.842368,41.235264 C564.851702,40.2767952 562.750475,39.797568 560.538624,39.797568 C558.842872,39.797568 557.276167,40.1293407 555.838464,40.792896 C554.400761,41.4564513 553.68192,42.5992239 553.68192,44.221248 C553.68192,45.7695437 554.474488,46.8754527 556.059648,47.539008 C557.644808,48.2025633 560.20683,48.9398359 563.745792,49.750848 C565.810186,50.1932182 567.892981,50.8198999 569.99424,51.630912 C572.095499,52.4419241 573.993976,53.5109694 575.689728,54.83808 C577.38548,56.1651906 578.749435,57.7871904 579.781632,59.704128 C580.813829,61.6210656 581.32992,63.9066107 581.32992,66.560832 C581.32992,70.0260653 580.629511,72.956724 579.228672,75.352896 C577.827833,77.749068 576.003083,79.6844086 573.754368,81.158976 C571.505653,82.6335434 568.980494,83.7025887 566.178816,84.366144 C563.377138,85.0296993 560.575502,85.361472 557.773824,85.361472 C553.276394,85.361472 548.87119,84.6426312 544.55808,83.204928 C540.24497,81.7672248 536.650766,79.647566 533.77536,76.845888 L543.949824,66.118464 C545.571848,67.8879448 547.562484,69.3624901 549.921792,70.542144 C552.2811,71.7217979 554.787827,72.311616 557.442048,72.311616 C558.916615,72.311616 560.372729,71.9614115 561.810432,71.260992 C563.248135,70.5605725 563.966976,69.3256408 563.966976,67.55616 C563.966976,65.8604075 563.082249,64.6070441 561.312768,63.796032 C559.543287,62.9850199 556.778515,62.1371564 553.018368,61.252416 C551.10143,60.8100458 549.184522,60.2202277 547.267584,59.482944 C545.350646,58.7456603 543.636488,57.7503423 542.125056,56.49696 C540.613624,55.2435777 539.378693,53.6953052 538.420224,51.852096 C537.461755,50.0088868 536.982528,47.7970689 536.982528,45.216576 C536.982528,41.8987994 537.682937,39.0787316 539.083776,36.756288 C540.484615,34.4338444 542.290933,32.5353674 544.502784,31.0608 C546.714635,29.5862326 549.166067,28.4987555 551.857152,27.798336 C554.548237,27.0979165 557.220851,26.747712 559.875072,26.747712 C564.003861,26.747712 568.040428,27.3928255 571.984896,28.683072 C575.929364,29.9733185 579.265522,31.9086591 581.993472,34.489152 L572.040192,44.774208 Z M611.521536,10.933056 C611.521536,12.333895 611.245059,13.6425539 610.692096,14.859072 C610.139133,16.0755901 609.401861,17.1262036 608.480256,18.010944 C607.558651,18.8956844 606.452742,19.5960934 605.162496,20.112192 C603.87225,20.6282906 602.526727,20.886336 601.125888,20.886336 C598.176753,20.886336 595.70689,19.9094498 593.716224,17.955648 C591.725558,16.0018462 590.73024,13.6610056 590.73024,10.933056 C590.73024,9.60594536 590.988285,8.33415008 591.504384,7.117632 C592.020483,5.90111392 592.757755,4.85050042 593.716224,3.96576 C594.674693,3.08101958 595.780602,2.36217876 597.033984,1.809216 C598.287366,1.25625324 599.651321,0.979776 601.125888,0.979776 C602.526727,0.979776 603.87225,1.23782142 605.162496,1.75392 C606.452742,2.27001858 607.558651,2.97042758 608.480256,3.855168 C609.401861,4.73990842 610.139133,5.79052192 610.692096,7.00704 C611.245059,8.22355808 611.521536,9.532217 611.521536,10.933056 Z M592.057344,83.592 L592.057344,28.517184 L610.194432,28.517184 L610.194432,83.592 L592.057344,83.592 Z M662.504448,46.322496 C661.472251,44.9953854 660.071433,43.9263401 658.301952,43.115328 C656.532471,42.3043159 654.726153,41.898816 652.882944,41.898816 C650.966006,41.898816 649.233416,42.2858841 647.68512,43.060032 C646.136824,43.8341799 644.809734,44.8663615 643.703808,46.156608 C642.597882,47.4468545 641.731587,48.9398315 641.104896,50.635584 C640.478205,52.3313365 640.164864,54.1376544 640.164864,56.054592 C640.164864,57.9715296 640.459773,59.7778475 641.0496,61.4736 C641.639427,63.1693525 642.505722,64.6623295 643.648512,65.952576 C644.791302,67.2428225 646.155256,68.2565723 647.740416,68.993856 C649.325576,69.7311397 651.113462,70.099776 653.104128,70.099776 C654.947337,70.099776 656.772087,69.7495715 658.578432,69.049152 C660.384777,68.3487325 661.84089,67.3349826 662.946816,66.007872 L673.010688,78.283584 C670.725109,80.4954351 667.776018,82.2280257 664.163328,83.481408 C660.550638,84.7347903 656.71682,85.361472 652.66176,85.361472 C648.311786,85.361472 644.256787,84.6979266 640.49664,83.370816 C636.736493,82.0437054 633.474062,80.1083647 630.709248,77.564736 C627.944434,75.0211073 625.76948,71.9429941 624.18432,68.330304 C622.59916,64.7176139 621.806592,60.6257509 621.806592,56.054592 C621.806592,51.5571615 622.59916,47.5021621 624.18432,43.889472 C625.76948,40.2767819 627.944434,37.1986687 630.709248,34.65504 C633.474062,32.1114113 636.736493,30.1576388 640.49664,28.793664 C644.256787,27.4296892 648.274923,26.747712 652.551168,26.747712 C654.541834,26.747712 656.514038,26.9320302 658.46784,27.300672 C660.421642,27.6693138 662.301687,28.1669729 664.108032,28.793664 C665.914377,29.4203551 667.57324,30.1944914 669.084672,31.116096 C670.596104,32.0377006 671.904762,33.0514505 673.010688,34.157376 L662.504448,46.322496 Z M414.999552,194.184 L385.913856,158.131008 L385.692672,158.131008 L385.692672,194.184 L367.113216,194.184 L367.113216,115.884864 L385.692672,115.884864 L385.692672,147.73536 L386.024448,147.73536 L414.004224,115.884864 L437.670912,115.884864 L403.940352,151.937856 L439.661568,194.184 L414.999552,194.184 Z M479.364096,160.342848 C479.364096,157.467442 478.460937,154.997578 476.654592,152.933184 C474.848247,150.86879 472.13877,149.836608 468.52608,149.836608 C466.756599,149.836608 465.134599,150.113085 463.660032,150.666048 C462.185465,151.219011 460.895238,151.974715 459.789312,152.933184 C458.683386,153.891653 457.798659,155.015994 457.135104,156.30624 C456.471549,157.596486 456.102912,158.942009 456.029184,160.342848 L479.364096,160.342848 Z M496.063488,167.310144 L496.063488,169.521984 C496.063488,170.259268 496.026624,170.959677 495.952896,171.623232 L456.029184,171.623232 C456.176641,173.171528 456.637436,174.572346 457.411584,175.825728 C458.185732,177.07911 459.18105,178.166587 460.397568,179.088192 C461.614086,180.009797 462.97804,180.728637 464.489472,181.244736 C466.000904,181.760835 467.567608,182.01888 469.189632,182.01888 C472.065038,182.01888 474.498038,181.484357 476.488704,180.415296 C478.47937,179.346235 480.10137,177.963848 481.354752,176.268096 L493.96224,184.23072 C491.381747,187.990867 487.971861,190.884662 483.73248,192.912192 C479.493099,194.939722 474.571804,195.953472 468.968448,195.953472 C464.839659,195.953472 460.932114,195.308358 457.245696,194.018112 C453.559278,192.727866 450.33371,190.84782 447.568896,188.37792 C444.804082,185.90802 442.629128,182.86677 441.043968,179.25408 C439.458808,175.64139 438.66624,171.512663 438.66624,166.867776 C438.66624,162.370346 439.440376,158.296914 440.988672,154.64736 C442.536968,150.997806 444.638195,147.901261 447.292416,145.357632 C449.946637,142.814003 453.080046,140.841799 456.692736,139.44096 C460.305426,138.040121 464.212971,137.339712 468.415488,137.339712 C472.470548,137.339712 476.193775,138.021689 479.58528,139.385664 C482.976785,140.749639 485.889012,142.721843 488.322048,145.302336 C490.755084,147.882829 492.653561,151.016238 494.017536,154.702656 C495.381511,158.389074 496.063488,162.591528 496.063488,167.310144 Z M538.420224,202.4784 C537.314298,205.353806 536.079367,207.915829 534.715392,210.164544 C533.351417,212.413259 531.729417,214.330168 529.849344,215.915328 C527.969271,217.500488 525.757453,218.698556 523.213824,219.509568 C520.670195,220.32058 517.665809,220.72608 514.200576,220.72608 C512.504824,220.72608 510.753801,220.615489 508.947456,220.394304 C507.141111,220.173119 505.574407,219.87821 504.247296,219.509568 L506.237952,204.247872 C507.122692,204.542785 508.099579,204.782399 509.16864,204.96672 C510.237701,205.151041 511.214588,205.2432 512.099328,205.2432 C514.901006,205.2432 516.928506,204.598086 518.181888,203.30784 C519.43527,202.017594 520.504316,200.192844 521.389056,197.833536 L523.158528,193.299264 L500.155392,139.109184 L520.283136,139.109184 L532.558848,174.498624 L532.890624,174.498624 L543.839232,139.109184 L563.08224,139.109184 L538.420224,202.4784 Z M631.428096,166.425408 C631.428096,170.259283 630.838278,173.945646 629.658624,177.484608 C628.47897,181.02357 626.764811,184.138547 624.516096,186.829632 C622.267381,189.520717 619.52104,191.67724 616.276992,193.299264 C613.032944,194.921288 609.346581,195.732288 605.217792,195.732288 C601.531374,195.732288 598.04776,194.976584 594.766848,193.465152 C591.485936,191.95372 588.960777,189.797198 587.191296,186.99552 L586.970112,186.99552 L586.970112,194.184 L570.27072,194.184 L570.27072,110.576448 L588.407808,110.576448 L588.407808,144.97056 L588.628992,144.97056 C590.177288,143.127351 592.352242,141.431624 595.15392,139.883328 C597.955598,138.335032 601.383916,137.560896 605.438976,137.560896 C609.420308,137.560896 613.014512,138.335032 616.221696,139.883328 C619.42888,141.431624 622.156789,143.532851 624.405504,146.187072 C626.654219,148.841293 628.38681,151.919406 629.603328,155.421504 C630.819846,158.923602 631.428096,162.591533 631.428096,166.425408 Z M613.95456,166.425408 C613.95456,164.655927 613.678083,162.923336 613.12512,161.227584 C612.572157,159.531832 611.742726,158.038854 610.6368,156.748608 C609.530874,155.458362 608.16692,154.407748 606.544896,153.596736 C604.922872,152.785724 603.042827,152.380224 600.904704,152.380224 C598.84031,152.380224 596.997128,152.785724 595.375104,153.596736 C593.75308,154.407748 592.370694,155.476793 591.227904,156.803904 C590.085114,158.131015 589.200387,159.642424 588.573696,161.338176 C587.947005,163.033928 587.633664,164.766519 587.633664,166.536 C587.633664,168.305481 587.947005,170.038072 588.573696,171.733824 C589.200387,173.429576 590.085114,174.940985 591.227904,176.268096 C592.370694,177.595207 593.75308,178.664252 595.375104,179.475264 C596.997128,180.286276 598.84031,180.691776 600.904704,180.691776 C603.042827,180.691776 604.922872,180.286276 606.544896,179.475264 C608.16692,178.664252 609.530874,177.595207 610.6368,176.268096 C611.742726,174.940985 612.572157,173.411145 613.12512,171.678528 C613.678083,169.945911 613.95456,168.194889 613.95456,166.425408 Z M701.32224,166.425408 C701.32224,170.922838 700.51124,174.99627 698.889216,178.645824 C697.267192,182.295378 695.055374,185.391923 692.253696,187.935552 C689.452018,190.479181 686.208018,192.451385 682.5216,193.852224 C678.835182,195.253063 674.890773,195.953472 670.688256,195.953472 C666.559467,195.953472 662.633491,195.253063 658.910208,193.852224 C655.186925,192.451385 651.942926,190.479181 649.178112,187.935552 C646.413298,185.391923 644.219912,182.295378 642.597888,178.645824 C640.975864,174.99627 640.164864,170.922838 640.164864,166.425408 C640.164864,161.927978 640.975864,157.872978 642.597888,154.260288 C644.219912,150.647598 646.413298,147.587917 649.178112,145.081152 C651.942926,142.574387 655.186925,140.657479 658.910208,139.330368 C662.633491,138.003257 666.559467,137.339712 670.688256,137.339712 C674.890773,137.339712 678.835182,138.003257 682.5216,139.330368 C686.208018,140.657479 689.452018,142.574387 692.253696,145.081152 C695.055374,147.587917 697.267192,150.647598 698.889216,154.260288 C700.51124,157.872978 701.32224,161.927978 701.32224,166.425408 Z M683.848704,166.425408 C683.848704,164.655927 683.553795,162.923336 682.963968,161.227584 C682.374141,159.531832 681.526278,158.038854 680.420352,156.748608 C679.314426,155.458362 677.950472,154.407748 676.328448,153.596736 C674.706424,152.785724 672.826379,152.380224 670.688256,152.380224 C668.550133,152.380224 666.670088,152.785724 665.048064,153.596736 C663.42604,154.407748 662.080517,155.458362 661.011456,156.748608 C659.942395,158.038854 659.131395,159.531832 658.578432,161.227584 C658.025469,162.923336 657.748992,164.655927 657.748992,166.425408 C657.748992,168.194889 658.025469,169.92748 658.578432,171.623232 C659.131395,173.318984 659.960826,174.848825 661.066752,176.2128 C662.172678,177.576775 663.536632,178.664252 665.158656,179.475264 C666.78068,180.286276 668.660725,180.691776 670.798848,180.691776 C672.936971,180.691776 674.817016,180.286276 676.43904,179.475264 C678.061064,178.664252 679.425018,177.576775 680.530944,176.2128 C681.63687,174.848825 682.466301,173.318984 683.019264,171.623232 C683.572227,169.92748 683.848704,168.194889 683.848704,166.425408 Z M745.337856,170.185536 L743.015424,170.185536 C741.024758,170.185536 739.01569,170.277695 736.98816,170.462016 C734.96063,170.646337 733.154312,170.996541 731.569152,171.51264 C729.983992,172.028739 728.675333,172.784443 727.643136,173.779776 C726.610939,174.775109 726.094848,176.083768 726.094848,177.705792 C726.094848,178.737989 726.334462,179.622716 726.813696,180.36 C727.29293,181.097284 727.90118,181.687102 728.638464,182.129472 C729.375748,182.571842 730.223611,182.885183 731.18208,183.069504 C732.140549,183.253825 733.06214,183.345984 733.94688,183.345984 C737.633298,183.345984 740.453366,182.332234 742.407168,180.304704 C744.36097,178.277174 745.337856,175.530833 745.337856,172.0656 L745.337856,170.185536 Z M712.049664,146.62944 C715.293712,143.532849 719.072234,141.21044 723.385344,139.662144 C727.698454,138.113848 732.103658,137.339712 736.601088,137.339712 C741.245975,137.339712 745.171952,137.911098 748.379136,139.053888 C751.58632,140.196678 754.185206,141.966132 756.175872,144.362304 C758.166538,146.758476 759.622651,149.781294 760.544256,153.430848 C761.465861,157.080402 761.926656,161.411879 761.926656,166.425408 L761.926656,194.184 L745.337856,194.184 L745.337856,188.322624 L745.00608,188.322624 C743.605241,190.608203 741.485582,192.377658 738.64704,193.63104 C735.808498,194.884422 732.730385,195.511104 729.412608,195.511104 C727.200757,195.511104 724.915212,195.216195 722.555904,194.626368 C720.196596,194.036541 718.040074,193.078087 716.086272,191.750976 C714.13247,190.423865 712.528902,188.654411 711.27552,186.44256 C710.022138,184.230709 709.395456,181.5028 709.395456,178.258752 C709.395456,174.27742 710.482933,171.070284 712.65792,168.637248 C714.832907,166.204212 717.634543,164.324167 721.062912,162.997056 C724.491281,161.669945 728.306667,160.785218 732.509184,160.342848 C736.711701,159.900478 740.803564,159.679296 744.784896,159.679296 L744.784896,158.79456 C744.784896,156.06661 743.826442,154.057542 741.909504,152.767296 C739.992566,151.47705 737.633294,150.831936 734.831616,150.831936 C732.251123,150.831936 729.762828,151.38489 727.366656,152.490816 C724.970484,153.596742 722.924552,154.923832 721.2288,156.472128 L712.049664,146.62944 Z M811.140096,153.928512 C810.329084,153.707327 809.536516,153.559872 808.762368,153.486144 C807.98822,153.412416 807.232516,153.375552 806.495232,153.375552 C804.062196,153.375552 802.016264,153.817916 800.357376,154.702656 C798.698488,155.587396 797.371397,156.656442 796.376064,157.909824 C795.380731,159.163206 794.66189,160.527161 794.21952,162.001728 C793.77715,163.476295 793.555968,164.766522 793.555968,165.872448 L793.555968,194.184 L775.41888,194.184 L775.41888,139.109184 L792.892416,139.109184 L792.892416,147.071808 L793.1136,147.071808 C794.514439,144.27013 796.505075,141.984585 799.085568,140.215104 C801.666061,138.445623 804.652015,137.560896 808.04352,137.560896 C808.780804,137.560896 809.499644,137.59776 810.200064,137.671488 C810.900484,137.745216 811.47187,137.855807 811.91424,138.003264 L811.140096,153.928512 Z M858.91584,194.184 L858.91584,186.99552 L858.694656,186.99552 C856.925175,189.797198 854.400016,191.95372 851.119104,193.465152 C847.838192,194.976584 844.354578,195.732288 840.66816,195.732288 C836.539371,195.732288 832.853008,194.921288 829.60896,193.299264 C826.364912,191.67724 823.618571,189.520717 821.369856,186.829632 C819.121141,184.138547 817.406982,181.02357 816.227328,177.484608 C815.047674,173.945646 814.457856,170.259283 814.457856,166.425408 C814.457856,162.591533 815.066106,158.923602 816.282624,155.421504 C817.499142,151.919406 819.231733,148.841293 821.480448,146.187072 C823.729163,143.532851 826.457072,141.431624 829.664256,139.883328 C832.87144,138.335032 836.465644,137.560896 840.446976,137.560896 C844.502036,137.560896 847.930354,138.335032 850.732032,139.883328 C853.53371,141.431624 855.708664,143.127351 857.25696,144.97056 L857.478144,144.97056 L857.478144,110.576448 L875.615232,110.576448 L875.615232,194.184 L858.91584,194.184 Z M858.252288,166.536 C858.252288,164.766519 857.938947,163.033928 857.312256,161.338176 C856.685565,159.642424 855.800838,158.131015 854.658048,156.803904 C853.515258,155.476793 852.132872,154.407748 850.510848,153.596736 C848.888824,152.785724 847.045642,152.380224 844.981248,152.380224 C842.843125,152.380224 840.96308,152.785724 839.341056,153.596736 C837.719032,154.407748 836.355078,155.458362 835.249152,156.748608 C834.143226,158.038854 833.313795,159.531832 832.760832,161.227584 C832.207869,162.923336 831.931392,164.655927 831.931392,166.425408 C831.931392,168.194889 832.207869,169.945911 832.760832,171.678528 C833.313795,173.411145 834.143226,174.940985 835.249152,176.268096 C836.355078,177.595207 837.719032,178.664252 839.341056,179.475264 C840.96308,180.286276 842.843125,180.691776 844.981248,180.691776 C847.045642,180.691776 848.888824,180.286276 850.510848,179.475264 C852.132872,178.664252 853.515258,177.595207 854.658048,176.268096 C855.800838,174.940985 856.685565,173.429576 857.312256,171.733824 C857.938947,170.038072 858.252288,168.305481 858.252288,166.536 Z" id="Logo"></path>
            </g>
        </g>
    </g>
</svg>